<?xml version="1.0" encoding="UTF-8" standalone="no"?>
<!DOCTYPE svg PUBLIC "-//W3C//DTD SVG 1.1//EN" "http://www.w3.org/Graphics/SVG/1.1/DTD/svg11.dtd">
<svg xmlns="http://www.w3.org/2000/svg" version="1.1" viewBox="0.00 0.00 500.00 500.00">
<path fill="#19334f" d="
  M 314.47 400.55
  L 314.50 417.15
  A 1.12 1.12 0.0 0 0 315.61 418.27
  Q 318.25 418.29 320.77 418.30
  C 321.92 418.30 322.75 419.09 323.96 419.18
  Q 329.24 419.60 332.36 420.62
  Q 334.25 421.24 335.40 423.51
  C 339.16 430.87 334.61 438.63 326.32 438.69
  Q 251.43 439.25 176.38 438.73
  C 172.62 438.71 169.02 438.66 166.18 435.84
  C 161.98 431.68 161.93 423.20 168.04 420.53
  C 169.88 419.73 171.62 418.34 173.69 418.34
  Q 179.07 418.31 183.99 418.31
  A 1.31 1.31 0.0 0 0 185.30 417.00
  L 185.27 400.31
  A 0.69 0.69 0.0 0 0 184.58 399.62
  Q 152.14 399.54 107.21 399.51
  Q 79.04 399.49 55.52 384.70
  Q 25.55 365.88 11.69 333.09
  Q 9.65 328.26 7.56 320.76
  Q -0.60 291.54 5.50 264.73
  Q 7.04 257.95 9.58 249.67
  Q 11.90 242.12 15.32 235.33
  Q 19.24 227.56 24.18 220.20
  Q 26.05 217.43 28.40 214.98
  Q 30.49 212.81 32.22 210.24
  Q 34.98 206.16 39.12 202.92
  C 40.76 201.63 41.55 199.79 43.30 198.62
  C 46.10 196.76 48.84 194.71 51.39 192.56
  Q 57.27 187.61 63.41 184.39
  C 65.41 183.34 67.07 182.01 69.05 180.86
  C 70.31 180.14 71.55 180.16 72.61 179.00
  Q 72.91 178.67 73.34 178.54
  Q 77.28 177.29 80.69 175.94
  Q 83.16 174.96 86.79 174.59
  C 90.54 174.20 93.41 172.18 96.96 171.30
  C 98.82 170.84 100.17 169.64 102.03 169.21
  A 1.37 1.37 0.0 0 0 103.10 167.98
  Q 104.28 154.42 107.27 143.16
  Q 109.59 134.43 115.22 120.05
  C 116.79 116.05 118.94 112.74 120.76 108.99
  Q 122.01 106.40 123.76 104.11
  C 125.01 102.46 125.80 100.42 126.82 99.04
  Q 130.75 93.71 134.88 88.43
  Q 137.63 84.91 140.30 82.22
  C 142.85 79.65 145.44 76.99 148.29 74.65
  C 151.98 71.62 155.28 68.36 159.14 65.40
  Q 164.45 61.33 169.50 57.80
  C 170.85 56.86 172.33 55.83 173.94 55.37
  C 175.12 55.04 175.94 54.06 177.07 53.49
  C 181.80 51.12 186.49 48.29 191.44 46.52
  Q 194.37 45.47 197.44 44.04
  Q 204.64 40.67 212.45 39.13
  Q 214.03 38.82 217.65 37.76
  C 219.95 37.09 222.46 36.93 224.74 36.36
  Q 228.84 35.33 233.09 35.41
  C 234.11 35.43 234.76 34.82 235.68 34.89
  C 238.61 35.10 241.03 33.92 243.88 33.82
  Q 250.57 33.59 256.99 33.95
  Q 257.48 33.97 257.89 34.27
  Q 258.43 34.66 259.07 34.46
  Q 260.73 33.95 262.31 34.76
  Q 262.74 34.98 263.21 34.92
  C 265.44 34.63 267.46 35.39 269.65 35.53
  C 271.10 35.63 272.67 35.61 274.08 35.93
  C 278.41 36.90 282.86 37.42 287.15 38.80
  Q 291.43 40.17 296.12 41.45
  Q 299.54 42.39 302.28 43.90
  C 304.76 45.26 307.37 45.74 309.95 46.88
  Q 324.19 53.17 336.89 62.21
  Q 338.55 63.39 339.83 64.93
  A 2.07 2.06 79.8 0 0 340.75 65.57
  C 343.27 66.48 344.61 68.35 346.69 69.82
  Q 354.99 75.68 360.97 83.04
  Q 368.59 92.41 374.86 101.52
  Q 378.22 106.40 382.32 114.19
  C 384.52 118.37 385.81 122.75 387.60 126.99
  Q 393.93 142.00 396.25 158.77
  Q 396.87 163.24 397.47 167.89
  A 1.53 1.53 0.0 0 0 399.00 169.23
  Q 400.58 169.21 401.99 169.91
  C 403.47 170.65 404.93 170.63 406.33 171.30
  Q 408.69 172.45 411.17 172.68
  C 413.24 172.88 415.10 174.26 417.20 174.84
  Q 420.72 175.83 424.54 177.24
  C 426.84 178.10 428.64 179.48 430.87 180.26
  Q 432.25 180.75 433.55 181.45
  Q 442.57 186.30 447.11 190.19
  Q 452.15 194.50 456.94 198.19
  C 460.90 201.24 464.90 205.12 467.98 208.97
  C 472.45 214.56 476.99 219.89 480.68 226.09
  Q 485.09 233.51 487.97 240.65
  Q 490.48 246.85 492.48 253.62
  Q 501.40 283.71 494.92 313.49
  C 493.50 320.03 491.35 326.04 489.23 332.24
  Q 488.10 335.52 486.56 338.67
  Q 478.79 354.47 467.81 366.30
  Q 441.24 394.90 403.41 398.82
  Q 395.57 399.64 383.55 399.60
  Q 360.11 399.52 340.52 399.54
  C 339.29 399.54 338.37 399.04 337.14 399.19
  Q 330.99 399.93 323.90 399.13
  Q 320.13 398.71 315.18 399.68
  Q 314.47 399.82 314.47 400.55
  Z
  M 166.96 84.48
  C 155.64 94.15 146.27 105.62 138.42 117.89
  Q 136.73 120.55 136.14 121.99
  Q 133.22 129.22 129.90 136.72
  Q 127.83 141.38 124.88 155.51
  Q 122.32 168.07 122.25 180.98
  Q 122.22 186.66 116.81 187.39
  Q 107.14 188.70 97.79 191.21
  C 92.86 192.53 88.20 194.76 83.46 196.52
  Q 78.24 198.47 73.62 201.34
  Q 48.60 216.91 33.68 243.20
  Q 32.52 245.24 31.76 247.68
  Q 27.88 257.25 26.42 263.00
  Q 20.39 286.79 25.59 310.74
  Q 28.38 321.95 32.64 331.11
  Q 35.00 336.19 39.15 341.53
  Q 47.10 353.09 55.08 359.92
  Q 64.73 368.17 79.09 374.35
  Q 90.27 379.17 102.49 379.21
  Q 144.65 379.38 183.45 379.08
  A 0.83 0.82 90.0 0 0 184.27 378.25
  L 184.18 347.23
  L 184.15 315.29
  L 184.14 272.18
  A 0.51 0.51 0.0 0 0 183.33 271.76
  C 179.95 274.18 176.51 276.90 172.74 278.71
  Q 169.49 280.27 167.51 280.58
  Q 150.55 283.19 134.51 281.10
  Q 125.40 277.99 119.12 272.87
  Q 116.44 270.68 113.77 267.25
  C 101.97 252.14 101.22 233.94 112.76 219.54
  Q 117.07 214.16 129.21 201.24
  C 131.20 199.12 133.59 197.40 135.40 195.17
  C 139.27 190.41 143.75 186.04 147.96 181.55
  C 150.42 178.93 153.36 176.85 155.54 174.09
  Q 158.01 170.96 160.73 168.14
  Q 166.15 162.52 171.78 156.87
  Q 181.01 146.25 191.08 136.24
  Q 195.10 132.25 198.64 128.34
  Q 202.29 124.32 205.78 120.63
  Q 206.76 119.60 207.73 118.03
  Q 214.16 107.65 222.87 98.43
  Q 231.34 91.67 241.50 89.69
  Q 262.41 85.60 278.74 99.74
  Q 285.35 107.89 291.13 116.66
  Q 292.29 118.42 293.51 119.75
  C 298.51 125.23 303.35 130.75 308.62 135.93
  C 316.03 143.22 322.70 151.20 330.09 158.68
  Q 334.33 162.97 338.45 167.42
  C 349.94 179.82 361.77 191.84 373.43 204.03
  Q 383.18 213.40 389.18 221.80
  Q 396.76 232.38 395.17 246.67
  Q 393.09 260.31 383.70 269.96
  Q 376.05 277.82 363.65 281.10
  Q 352.25 282.61 340.49 282.09
  Q 330.97 281.68 322.41 276.13
  Q 319.16 274.02 316.30 271.86
  A 0.52 0.52 0.0 0 0 315.46 272.27
  L 315.35 315.30
  L 315.42 346.46
  L 315.25 377.94
  Q 315.25 379.23 316.54 379.23
  L 381.71 379.22
  C 390.57 379.35 400.29 379.81 408.98 378.20
  C 419.54 376.25 429.21 371.20 438.93 364.99
  Q 444.88 361.18 450.87 354.87
  Q 456.44 348.99 461.22 342.22
  Q 465.97 336.15 467.61 332.09
  C 469.66 327.03 471.99 321.97 473.42 316.70
  Q 474.18 313.88 474.96 310.96
  Q 479.98 288.92 475.24 266.85
  Q 474.02 261.17 471.91 255.26
  Q 468.93 246.91 467.45 244.01
  Q 453.92 217.62 428.94 202.11
  Q 423.23 198.56 415.58 195.59
  C 405.34 191.61 396.31 189.06 384.99 187.65
  Q 377.98 186.84 377.86 180.00
  Q 377.65 168.51 376.11 158.77
  C 373.90 146.47 370.32 136.13 365.55 125.28
  Q 362.90 119.27 360.03 114.84
  Q 344.92 91.46 321.46 75.31
  C 316.48 71.89 310.86 69.37 305.55 66.62
  Q 299.59 63.52 293.18 61.26
  Q 251.44 46.50 208.40 60.85
  C 199.02 63.98 190.66 68.48 181.15 73.64
  Q 177.12 75.82 166.96 84.48
  Z
  M 128.48 235.60
  C 125.45 244.81 129.16 253.92 137.78 258.14
  Q 141.67 260.04 149.09 259.94
  Q 155.64 259.85 162.90 259.78
  C 165.29 259.75 167.71 259.18 169.54 257.59
  Q 173.17 254.43 176.56 250.44
  C 180.74 245.52 185.38 241.33 190.02 236.81
  Q 194.67 232.27 200.53 225.27
  C 202.04 223.47 204.14 223.21 205.49 225.21
  Q 206.02 225.99 206.02 226.75
  Q 205.93 254.41 205.98 282.44
  L 205.95 309.60
  L 205.89 337.51
  L 205.81 364.62
  L 205.84 393.46
  Q 204.78 400.53 207.00 406.76
  Q 209.41 413.53 215.60 416.25
  Q 219.14 417.81 224.29 417.81
  Q 252.59 417.82 275.75 417.81
  Q 290.20 417.81 293.48 404.02
  Q 294.41 400.11 293.65 393.48
  L 293.72 364.71
  L 293.68 337.52
  L 293.62 308.54
  L 293.55 283.47
  Q 293.49 256.13 293.68 229.25
  C 293.69 227.34 293.31 224.94 295.48 224.01
  C 297.20 223.27 299.09 224.96 300.08 226.17
  Q 305.08 232.30 310.59 237.45
  Q 317.11 243.55 320.67 247.56
  C 325.30 252.76 330.33 259.68 335.98 259.77
  Q 344.02 259.90 353.29 259.92
  C 362.95 259.93 371.00 254.06 372.27 244.49
  Q 372.94 239.37 370.81 234.03
  Q 367.21 226.32 359.78 219.22
  C 353.21 212.95 346.95 205.40 340.36 198.82
  C 333.68 192.15 327.24 184.80 320.39 177.96
  C 313.36 170.94 306.79 163.23 299.93 156.47
  Q 286.02 142.74 273.26 128.36
  C 271.12 125.95 270.89 122.63 269.24 119.86
  C 266.29 114.89 260.49 110.08 254.31 109.16
  Q 241.35 107.22 233.18 116.25
  Q 230.27 119.47 229.04 123.62
  Q 227.88 127.53 225.36 130.08
  C 214.87 140.66 204.42 151.01 193.89 162.29
  Q 179.76 177.44 165.16 192.54
  C 156.25 201.76 146.86 212.30 137.60 221.94
  Q 135.55 224.07 133.89 226.06
  C 131.06 229.43 128.95 231.59 128.48 235.60
  Z"
/>
<path fill="#33e3f1" d="
  M 376.11 158.77
  Q 376.05 160.21 375.42 160.51
  Q 374.80 160.80 374.40 160.19
  Q 374.16 159.82 374.05 159.41
  Q 373.91 158.83 373.31 158.78
  Q 362.75 157.96 351.14 157.25
  Q 349.19 157.13 345.89 157.45
  Q 343.14 157.72 340.51 157.59
  Q 338.29 157.47 336.87 156.24
  Q 335.13 154.75 334.33 152.71
  Q 326.73 133.56 312.73 119.80
  C 309.18 116.32 305.17 113.50 301.30 110.39
  C 297.85 107.62 293.87 105.64 290.11 103.15
  Q 288.78 102.27 282.98 100.16
  Q 280.38 99.21 278.74 99.74
  Q 262.41 85.60 241.50 89.69
  Q 231.34 91.67 222.87 98.43
  Q 216.67 99.85 209.57 103.38
  Q 204.38 105.95 201.01 108.34
  Q 197.10 111.11 192.67 114.69
  Q 185.22 120.70 180.65 126.42
  Q 170.11 139.62 163.03 154.91
  A 2.02 1.94 -76.2 0 1 161.17 156.09
  Q 160.66 156.07 159.77 156.88
  L 152.16 156.94
  Q 154.02 146.97 155.34 142.99
  Q 157.06 137.77 160.59 130.96
  Q 163.44 125.46 167.20 120.54
  Q 174.71 110.73 184.06 101.89
  Q 184.96 101.04 183.93 100.35
  Q 183.11 99.78 182.46 98.69
  Q 181.40 96.89 179.49 96.55
  Q 179.23 96.50 179.29 96.23
  Q 179.36 95.94 179.14 95.74
  Q 175.09 92.12 170.09 88.48
  A 1.59 1.58 14.4 0 1 169.45 87.41
  Q 169.24 86.00 167.98 86.54
  Q 167.72 86.65 167.69 86.37
  Q 167.68 86.31 167.73 86.28
  Q 168.06 86.09 167.68 86.13
  Q 165.91 86.29 166.96 84.48
  Q 177.12 75.82 181.15 73.64
  C 190.66 68.48 199.02 63.98 208.40 60.85
  Q 251.44 46.50 293.18 61.26
  Q 299.59 63.52 305.55 66.62
  C 310.86 69.37 316.48 71.89 321.46 75.31
  Q 344.92 91.46 360.03 114.84
  Q 362.90 119.27 365.55 125.28
  C 370.32 136.13 373.90 146.47 376.11 158.77
  Z
  M 280.74 82.62
  Q 296.16 87.25 309.84 96.33
  C 312.70 98.23 314.99 100.68 317.58 102.84
  Q 320.27 105.08 322.73 107.96
  Q 326.36 112.20 330.37 116.30
  C 334.41 120.41 338.15 127.97 345.37 123.98
  C 351.14 120.78 349.65 113.61 346.33 109.11
  Q 340.61 101.33 334.82 95.57
  Q 328.61 89.38 318.92 81.98
  C 307.85 73.53 295.80 69.53 282.00 65.46
  Q 278.91 64.54 276.22 64.89
  Q 267.78 65.96 268.91 75.02
  C 269.57 80.37 276.61 81.38 280.74 82.62
  Z"
/>
<path fill="#ffffff" d="
  M 280.74 82.62
  C 276.61 81.38 269.57 80.37 268.91 75.02
  Q 267.78 65.96 276.22 64.89
  Q 278.91 64.54 282.00 65.46
  C 295.80 69.53 307.85 73.53 318.92 81.98
  Q 328.61 89.38 334.82 95.57
  Q 340.61 101.33 346.33 109.11
  C 349.65 113.61 351.14 120.78 345.37 123.98
  C 338.15 127.97 334.41 120.41 330.37 116.30
  Q 326.36 112.20 322.73 107.96
  Q 320.27 105.08 317.58 102.84
  C 314.99 100.68 312.70 98.23 309.84 96.33
  Q 296.16 87.25 280.74 82.62
  Z"
/>
<path fill="#27c5ea" d="
  M 166.96 84.48
  Q 165.91 86.29 167.68 86.13
  Q 168.06 86.09 167.73 86.28
  Q 167.68 86.31 167.69 86.37
  Q 167.72 86.65 167.98 86.54
  Q 169.24 86.00 169.45 87.41
  A 1.59 1.58 14.4 0 0 170.09 88.48
  Q 175.09 92.12 179.14 95.74
  Q 179.36 95.94 179.29 96.23
  Q 179.23 96.50 179.49 96.55
  Q 181.40 96.89 182.46 98.69
  Q 183.11 99.78 183.93 100.35
  Q 184.96 101.04 184.06 101.89
  Q 174.71 110.73 167.20 120.54
  Q 163.44 125.46 160.59 130.96
  Q 157.06 137.77 155.34 142.99
  Q 154.02 146.97 152.16 156.94
  Q 142.53 157.43 132.13 158.48
  Q 130.43 158.65 128.89 158.50
  Q 127.26 158.34 125.67 158.21
  Q 125.13 158.16 125.16 157.62
  Q 125.23 156.50 124.88 155.51
  Q 127.83 141.38 129.90 136.72
  Q 133.22 129.22 136.14 121.99
  Q 136.73 120.55 138.42 117.89
  C 146.27 105.62 155.64 94.15 166.96 84.48
  Z"
/>
<path fill="#27c5ea" d="
  M 222.87 98.43
  Q 214.16 107.65 207.73 118.03
  Q 206.76 119.60 205.78 120.63
  Q 202.29 124.32 198.64 128.34
  Q 195.10 132.25 191.08 136.24
  Q 181.01 146.25 171.78 156.87
  Q 168.77 156.19 166.04 156.57
  Q 163.86 156.88 162.92 156.88
  Q 161.36 156.88 159.77 156.88
  Q 160.66 156.07 161.17 156.09
  A 2.02 1.94 -76.2 0 0 163.03 154.91
  Q 170.11 139.62 180.65 126.42
  Q 185.22 120.70 192.67 114.69
  Q 197.10 111.11 201.01 108.34
  Q 204.38 105.95 209.57 103.38
  Q 216.67 99.85 222.87 98.43
  Z"
/>
<path fill="#27c5ea" d="
  M 376.11 158.77
  Q 377.65 168.51 377.86 180.00
  Q 377.98 186.84 384.99 187.65
  L 383.07 188.06
  A 1.33 1.33 0.0 0 0 382.18 188.73
  Q 381.48 190.02 380.26 190.84
  Q 380.01 191.01 380.22 191.23
  Q 380.45 191.48 380.28 191.77
  Q 378.92 194.19 376.79 196.71
  Q 376.64 196.89 376.59 197.13
  Q 376.54 197.44 376.83 197.55
  Q 377.33 197.73 377.39 198.27
  Q 377.49 199.25 377.18 200.02
  Q 377.07 200.30 376.77 200.36
  Q 376.46 200.42 376.21 200.22
  Q 375.69 199.82 375.40 200.41
  Q 374.88 201.47 375.17 202.95
  Q 375.36 203.93 374.47 203.54
  Q 373.93 203.30 373.43 204.03
  C 361.77 191.84 349.94 179.82 338.45 167.42
  Q 334.33 162.97 330.09 158.68
  C 322.70 151.20 316.03 143.22 308.62 135.93
  C 303.35 130.75 298.51 125.23 293.51 119.75
  Q 292.29 118.42 291.13 116.66
  Q 285.35 107.89 278.74 99.74
  Q 280.38 99.21 282.98 100.16
  Q 288.78 102.27 290.11 103.15
  C 293.87 105.64 297.85 107.62 301.30 110.39
  C 305.17 113.50 309.18 116.32 312.73 119.80
  Q 326.73 133.56 334.33 152.71
  Q 335.13 154.75 336.87 156.24
  Q 338.29 157.47 340.51 157.59
  Q 343.14 157.72 345.89 157.45
  Q 349.19 157.13 351.14 157.25
  Q 362.75 157.96 373.31 158.78
  Q 373.91 158.83 374.05 159.41
  Q 374.16 159.82 374.40 160.19
  Q 374.80 160.80 375.42 160.51
  Q 376.05 160.21 376.11 158.77
  Z"
/>
<path fill="#ffffff" d="
  M 370.81 234.03
  Q 368.97 234.48 366.75 234.34
  Q 363.14 234.10 362.72 234.10
  Q 351.12 234.13 339.50 234.29
  Q 336.47 234.33 333.94 231.75
  Q 328.39 226.08 322.89 220.33
  Q 320.14 217.44 316.75 213.53
  C 311.89 207.92 305.37 202.72 297.97 202.15
  Q 288.42 201.42 282.12 208.57
  Q 279.84 211.14 278.31 215.02
  C 275.82 221.34 278.10 228.22 276.32 234.72
  Q 275.46 237.85 273.57 240.50
  Q 272.76 241.63 272.52 242.95
  Q 271.17 250.18 271.09 256.79
  C 271.06 259.61 270.07 261.07 268.40 263.16
  Q 259.92 273.75 246.16 271.58
  Q 235.30 269.86 229.96 260.56
  Q 229.46 259.70 229.33 258.69
  Q 228.37 251.48 227.60 244.46
  C 227.37 242.36 226.58 240.25 225.19 238.65
  Q 223.23 236.38 223.12 233.20
  C 222.94 227.96 223.46 222.58 222.15 217.49
  Q 219.47 207.07 208.54 203.06
  Q 204.32 201.51 199.88 202.17
  C 192.28 203.30 188.00 208.19 182.55 213.82
  Q 179.12 217.37 176.22 220.76
  C 172.80 224.78 169.36 228.35 165.55 232.02
  Q 163.52 233.98 160.00 234.00
  Q 146.75 234.07 133.50 234.11
  Q 132.66 234.12 130.58 234.66
  Q 130.12 234.78 129.85 235.17
  Q 129.39 235.82 128.48 235.60
  C 128.95 231.59 131.06 229.43 133.89 226.06
  Q 135.55 224.07 137.60 221.94
  C 146.86 212.30 156.25 201.76 165.16 192.54
  Q 179.76 177.44 193.89 162.29
  C 204.42 151.01 214.87 140.66 225.36 130.08
  Q 227.88 127.53 229.04 123.62
  Q 230.27 119.47 233.18 116.25
  Q 241.35 107.22 254.31 109.16
  C 260.49 110.08 266.29 114.89 269.24 119.86
  C 270.89 122.63 271.12 125.95 273.26 128.36
  Q 286.02 142.74 299.93 156.47
  C 306.79 163.23 313.36 170.94 320.39 177.96
  C 327.24 184.80 333.68 192.15 340.36 198.82
  C 346.95 205.40 353.21 212.95 359.78 219.22
  Q 367.21 226.32 370.81 234.03
  Z"
/>
<path fill="#1aa7dc" d="
  M 124.88 155.51
  Q 125.23 156.50 125.16 157.62
  Q 125.13 158.16 125.67 158.21
  Q 127.26 158.34 128.89 158.50
  Q 130.43 158.65 132.13 158.48
  Q 142.53 157.43 152.16 156.94
  L 159.77 156.88
  Q 161.36 156.88 162.92 156.88
  Q 163.86 156.88 166.04 156.57
  Q 168.77 156.19 171.78 156.87
  Q 166.15 162.52 160.73 168.14
  Q 158.01 170.96 155.54 174.09
  C 153.36 176.85 150.42 178.93 147.96 181.55
  C 143.75 186.04 139.27 190.41 135.40 195.17
  C 133.59 197.40 131.20 199.12 129.21 201.24
  Q 117.07 214.16 112.76 219.54
  C 101.22 233.94 101.97 252.14 113.77 267.25
  Q 116.44 270.68 119.12 272.87
  Q 125.40 277.99 134.51 281.10
  Q 107.99 282.56 75.63 282.12
  Q 60.56 281.91 53.67 295.69
  Q 52.56 297.89 52.94 301.43
  Q 52.98 301.79 52.71 302.02
  Q 52.44 302.25 51.96 302.04
  L 51.77 301.70
  C 48.21 291.11 50.04 278.43 52.20 267.69
  C 53.60 260.74 56.29 254.57 59.78 248.56
  A 0.79 0.79 0.0 0 0 59.09 247.38
  L 31.76 247.68
  Q 32.52 245.24 33.68 243.20
  Q 48.60 216.91 73.62 201.34
  Q 78.24 198.47 83.46 196.52
  C 88.20 194.76 92.86 192.53 97.79 191.21
  Q 107.14 188.70 116.81 187.39
  Q 122.22 186.66 122.25 180.98
  Q 122.32 168.07 124.88 155.51
  Z
  M 161.45 162.13
  Q 161.65 162.19 161.76 162.01
  Q 162.06 161.54 162.01 160.98
  A 0.48 0.48 0.0 0 0 161.24 160.63
  Q 160.90 160.88 160.70 161.24
  Q 160.37 161.81 161.00 162.00
  L 161.45 162.13
  Z
  M 151.2569 172.9136
  A 1.23 1.05 116.2 0 0 152.7421 172.2736
  A 1.23 1.05 116.2 0 0 152.3431 170.7064
  A 1.23 1.05 116.2 0 0 150.8579 171.3464
  A 1.23 1.05 116.2 0 0 151.2569 172.9136
  Z
  M 140.58 181.91
  Q 140.60 182.42 141.09 182.49
  Q 141.76 182.60 142.35 182.21
  Q 142.83 181.89 142.60 181.37
  Q 142.39 180.88 141.96 180.55
  Q 141.41 180.13 140.99 180.66
  Q 140.56 181.20 140.58 181.91
  Z
  M 133.24 191.03
  L 131.83 190.52
  A 0.43 0.43 0.0 0 0 131.28 190.77
  L 131.21 190.95
  A 2.20 1.10 -69.9 0 0 131.49 193.40
  L 131.64 193.45
  A 2.20 1.10 -69.9 0 0 133.43 191.76
  L 133.49 191.59
  A 0.43 0.43 0.0 0 0 133.24 191.03
  Z
  M 121.7241 202.7491
  A 1.12 0.90 98.0 0 0 122.7712 201.7653
  A 1.12 0.90 98.0 0 0 122.0359 200.5309
  A 1.12 0.90 98.0 0 0 120.9888 201.5147
  A 1.12 0.90 98.0 0 0 121.7241 202.7491
  Z
  M 112.74 213.80
  Q 113.47 213.38 112.83 212.84
  Q 112.15 212.24 111.51 212.99
  Q 111.00 213.59 111.74 213.86
  Q 112.30 214.06 112.74 213.80
  Z"
/>
<path fill="#a5e6ff" d="
  M 161.45 162.13
  L 161.00 162.00
  Q 160.37 161.81 160.70 161.24
  Q 160.90 160.88 161.24 160.63
  A 0.48 0.48 0.0 0 1 162.01 160.98
  Q 162.06 161.54 161.76 162.01
  Q 161.65 162.19 161.45 162.13
  Z"
/>
<ellipse fill="#a5e6ff" cx="0.00" cy="0.00" transform="translate(151.80,171.81) rotate(116.2)" rx="1.23" ry="1.05"/>
<path fill="#a5e6ff" d="
  M 140.58 181.91
  Q 140.56 181.20 140.99 180.66
  Q 141.41 180.13 141.96 180.55
  Q 142.39 180.88 142.60 181.37
  Q 142.83 181.89 142.35 182.21
  Q 141.76 182.60 141.09 182.49
  Q 140.60 182.42 140.58 181.91
  Z"
/>
<path fill="#2ad8ef" d="
  M 384.99 187.65
  C 396.31 189.06 405.34 191.61 415.58 195.59
  Q 423.23 198.56 428.94 202.11
  Q 453.92 217.62 467.45 244.01
  Q 468.93 246.91 471.91 255.26
  Q 474.02 261.17 475.24 266.85
  Q 479.98 288.92 474.96 310.96
  Q 473.33 311.02 473.06 310.08
  Q 472.88 309.42 472.39 309.90
  Q 471.52 310.76 470.61 309.93
  Q 470.27 309.62 470.35 309.16
  Q 470.60 307.74 469.04 307.23
  Q 468.72 307.13 468.85 307.43
  Q 468.91 307.57 468.84 307.74
  Q 468.70 308.04 468.42 307.86
  Q 460.84 302.73 451.40 298.56
  A 1.12 1.12 0.0 0 0 449.91 299.17
  Q 448.37 302.98 446.57 306.94
  Q 445.43 309.46 444.17 310.75
  C 440.78 314.23 434.78 315.28 429.97 315.10
  Q 428.52 315.03 427.26 314.34
  Q 426.68 314.02 427.24 313.68
  Q 429.84 312.11 432.42 310.31
  Q 434.45 308.88 436.19 307.20
  Q 437.82 305.63 439.72 304.03
  Q 441.11 302.86 442.00 300.97
  Q 442.32 300.29 442.82 299.75
  Q 443.37 299.17 443.14 298.30
  A 0.99 0.99 0.0 0 1 443.24 297.54
  Q 444.10 296.01 444.12 294.28
  A 0.04 0.04 0.0 0 1 444.20 294.26
  Q 444.29 294.42 444.46 294.39
  Q 444.86 294.32 444.84 293.91
  Q 444.65 291.03 442.36 288.71
  Q 436.58 282.83 428.79 282.28
  Q 422.72 281.85 415.85 281.87
  A 0.61 0.61 0.0 0 1 415.24 281.29
  L 415.06 278.43
  Q 415.03 277.91 415.32 277.48
  Q 415.63 277.04 415.69 276.50
  Q 415.75 275.97 416.03 275.50
  Q 417.16 273.59 418.68 270.04
  Q 420.14 266.64 420.33 263.97
  Q 420.37 263.45 420.62 263.00
  Q 420.90 262.51 420.89 261.93
  Q 420.88 261.45 421.07 261.01
  Q 422.38 258.04 422.76 254.87
  Q 422.78 254.77 422.85 254.70
  Q 422.96 254.60 423.10 254.59
  Q 423.50 254.57 423.61 254.19
  Q 423.96 252.98 425.02 251.92
  A 1.32 1.31 -46.9 0 0 424.96 250.01
  C 423.41 248.63 422.03 248.10 419.83 248.06
  Q 408.50 247.86 401.50 247.96
  Q 397.31 248.02 395.17 246.67
  Q 396.76 232.38 389.18 221.80
  Q 383.18 213.40 373.43 204.03
  Q 373.93 203.30 374.47 203.54
  Q 375.36 203.93 375.17 202.95
  Q 374.88 201.47 375.40 200.41
  Q 375.69 199.82 376.21 200.22
  Q 376.46 200.42 376.77 200.36
  Q 377.07 200.30 377.18 200.02
  Q 377.49 199.25 377.39 198.27
  Q 377.33 197.73 376.83 197.55
  Q 376.54 197.44 376.59 197.13
  Q 376.64 196.89 376.79 196.71
  Q 378.92 194.19 380.28 191.77
  Q 380.45 191.48 380.22 191.23
  Q 380.01 191.01 380.26 190.84
  Q 381.48 190.02 382.18 188.73
  A 1.33 1.33 0.0 0 1 383.07 188.06
  L 384.99 187.65
  Z
  M 440.65 247.43
  Q 443.07 251.77 445.32 256.47
  C 447.57 261.15 450.93 262.95 456.07 261.79
  C 462.07 260.42 462.75 255.23 460.98 250.12
  C 458.94 244.22 455.37 238.85 451.78 233.38
  C 441.85 218.26 427.43 207.65 410.06 202.40
  C 405.75 201.10 401.47 200.43 398.13 204.11
  Q 395.92 206.54 395.93 209.90
  Q 395.94 216.77 403.61 218.61
  C 413.49 220.99 422.14 225.28 429.28 232.73
  Q 436.91 240.68 440.65 247.43
  Z"
/>
<path fill="#a5e6ff" d="
  M 133.24 191.03
  A 0.43 0.43 0.0 0 1 133.49 191.59
  L 133.43 191.76
  A 2.20 1.10 -69.9 0 1 131.64 193.45
  L 131.49 193.40
  A 2.20 1.10 -69.9 0 1 131.21 190.95
  L 131.28 190.77
  A 0.43 0.43 0.0 0 1 131.83 190.52
  L 133.24 191.03
  Z"
/>
<ellipse fill="#a5e6ff" cx="0.00" cy="0.00" transform="translate(121.88,201.64) rotate(98.0)" rx="1.12" ry="0.90"/>
<path fill="#ffffff" d="
  M 440.65 247.43
  Q 436.91 240.68 429.28 232.73
  C 422.14 225.28 413.49 220.99 403.61 218.61
  Q 395.94 216.77 395.93 209.90
  Q 395.92 206.54 398.13 204.11
  C 401.47 200.43 405.75 201.10 410.06 202.40
  C 427.43 207.65 441.85 218.26 451.78 233.38
  C 455.37 238.85 458.94 244.22 460.98 250.12
  C 462.75 255.23 462.07 260.42 456.07 261.79
  C 450.93 262.95 447.57 261.15 445.32 256.47
  Q 443.07 251.77 440.65 247.43
  Z"
/>
<path fill="#d0eefb" d="
  M 370.81 234.03
  Q 372.94 239.37 372.27 244.49
  C 371.00 254.06 362.95 259.93 353.29 259.92
  Q 344.02 259.90 335.98 259.77
  C 330.33 259.68 325.30 252.76 320.67 247.56
  Q 317.11 243.55 310.59 237.45
  Q 305.08 232.30 300.08 226.17
  C 299.09 224.96 297.20 223.27 295.48 224.01
  C 293.31 224.94 293.69 227.34 293.68 229.25
  Q 293.49 256.13 293.55 283.47
  Q 290.31 282.44 289.25 282.43
  Q 247.71 282.10 205.98 282.44
  Q 205.93 254.41 206.02 226.75
  Q 206.02 225.99 205.49 225.21
  C 204.14 223.21 202.04 223.47 200.53 225.27
  Q 194.67 232.27 190.02 236.81
  C 185.38 241.33 180.74 245.52 176.56 250.44
  Q 173.17 254.43 169.54 257.59
  C 167.71 259.18 165.29 259.75 162.90 259.78
  Q 155.64 259.85 149.09 259.94
  Q 141.67 260.04 137.78 258.14
  C 129.16 253.92 125.45 244.81 128.48 235.60
  Q 129.39 235.82 129.85 235.17
  Q 130.12 234.78 130.58 234.66
  Q 132.66 234.12 133.50 234.11
  Q 146.75 234.07 160.00 234.00
  Q 163.52 233.98 165.55 232.02
  C 169.36 228.35 172.80 224.78 176.22 220.76
  Q 179.12 217.37 182.55 213.82
  C 188.00 208.19 192.28 203.30 199.88 202.17
  Q 204.32 201.51 208.54 203.06
  Q 219.47 207.07 222.15 217.49
  C 223.46 222.58 222.94 227.96 223.12 233.20
  Q 223.23 236.38 225.19 238.65
  C 226.58 240.25 227.37 242.36 227.60 244.46
  Q 228.37 251.48 229.33 258.69
  Q 229.46 259.70 229.96 260.56
  Q 235.30 269.86 246.16 271.58
  Q 259.92 273.75 268.40 263.16
  C 270.07 261.07 271.06 259.61 271.09 256.79
  Q 271.17 250.18 272.52 242.95
  Q 272.76 241.63 273.57 240.50
  Q 275.46 237.85 276.32 234.72
  C 278.10 228.22 275.82 221.34 278.31 215.02
  Q 279.84 211.14 282.12 208.57
  Q 288.42 201.42 297.97 202.15
  C 305.37 202.72 311.89 207.92 316.75 213.53
  Q 320.14 217.44 322.89 220.33
  Q 328.39 226.08 333.94 231.75
  Q 336.47 234.33 339.50 234.29
  Q 351.12 234.13 362.72 234.10
  Q 363.14 234.10 366.75 234.34
  Q 368.97 234.48 370.81 234.03
  Z"
/>
<path fill="#a5e6ff" d="
  M 112.74 213.80
  Q 112.30 214.06 111.74 213.86
  Q 111.00 213.59 111.51 212.99
  Q 112.15 212.24 112.83 212.84
  Q 113.47 213.38 112.74 213.80
  Z"
/>
<path fill="#27c5ea" d="
  M 395.17 246.67
  Q 397.31 248.02 401.50 247.96
  Q 408.50 247.86 419.83 248.06
  C 422.03 248.10 423.41 248.63 424.96 250.01
  A 1.32 1.31 -46.9 0 1 425.02 251.92
  Q 423.96 252.98 423.61 254.19
  Q 423.50 254.57 423.10 254.59
  Q 422.96 254.60 422.85 254.70
  Q 422.78 254.77 422.76 254.87
  Q 422.38 258.04 421.07 261.01
  Q 420.88 261.45 420.89 261.93
  Q 420.90 262.51 420.62 263.00
  Q 420.37 263.45 420.33 263.97
  Q 420.14 266.64 418.68 270.04
  Q 417.16 273.59 416.03 275.50
  Q 415.75 275.97 415.69 276.50
  Q 415.63 277.04 415.32 277.48
  Q 415.03 277.91 415.06 278.43
  L 415.24 281.29
  A 0.61 0.61 0.0 0 0 415.85 281.87
  Q 422.72 281.85 428.79 282.28
  Q 436.58 282.83 442.36 288.71
  Q 444.65 291.03 444.84 293.91
  Q 444.86 294.32 444.46 294.39
  Q 444.29 294.42 444.20 294.26
  A 0.04 0.04 0.0 0 0 444.12 294.28
  Q 444.10 296.01 443.24 297.54
  A 0.99 0.99 0.0 0 0 443.14 298.30
  Q 443.37 299.17 442.82 299.75
  Q 442.32 300.29 442.00 300.97
  Q 441.11 302.86 439.72 304.03
  Q 437.82 305.63 436.19 307.20
  Q 434.45 308.88 432.42 310.31
  Q 429.84 312.11 427.24 313.68
  Q 426.68 314.02 427.26 314.34
  Q 428.52 315.03 429.97 315.10
  L 395.26 315.53
  L 377.83 315.45
  Q 375.93 314.89 375.95 314.14
  Q 375.95 314.05 376.24 313.20
  Q 376.48 312.49 377.13 312.39
  Q 377.63 312.31 377.65 311.80
  L 377.66 311.48
  Q 377.68 310.92 378.10 310.55
  Q 383.57 305.79 387.37 300.66
  Q 389.96 297.18 393.11 293.23
  Q 396.77 288.65 398.94 283.16
  A 0.81 0.80 -80.4 0 0 398.16 282.06
  Q 381.19 282.66 363.65 281.10
  Q 376.05 277.82 383.70 269.96
  Q 393.09 260.31 395.17 246.67
  Z"
/>
<path fill="#0c8acd" d="
  M 31.76 247.68
  L 59.09 247.38
  A 0.79 0.79 0.0 0 1 59.78 248.56
  C 56.29 254.57 53.60 260.74 52.20 267.69
  C 50.04 278.43 48.21 291.11 51.77 301.70
  Q 51.56 301.90 51.39 301.82
  Q 51.24 301.73 51.10 301.61
  Q 50.99 301.51 51.02 301.38
  Q 51.11 300.85 50.61 301.12
  Q 49.82 301.54 49.28 302.16
  Q 49.05 302.43 48.72 302.30
  Q 46.27 301.34 44.01 301.95
  C 42.75 302.30 42.10 303.39 40.67 303.60
  Q 40.18 303.68 39.78 303.98
  Q 37.71 305.56 35.23 306.57
  C 33.56 307.24 32.32 308.41 30.71 309.21
  Q 30.17 309.47 29.84 309.98
  Q 29.36 310.69 28.51 310.63
  A 0.54 0.54 0.0 0 1 28.03 310.23
  Q 27.94 309.93 27.66 309.86
  Q 27.14 309.74 26.92 310.22
  Q 26.58 310.94 25.59 310.74
  Q 20.39 286.79 26.42 263.00
  Q 27.88 257.25 31.76 247.68
  Z"
/>
<path fill="#0c8acd" d="
  M 184.15 315.29
  L 93.80 315.70
  Q 82.22 315.70 70.66 315.62
  Q 65.96 315.59 63.44 314.73
  C 57.62 312.74 53.02 308.26 51.96 302.04
  Q 52.44 302.25 52.71 302.02
  Q 52.98 301.79 52.94 301.43
  Q 52.56 297.89 53.67 295.69
  Q 60.56 281.91 75.63 282.12
  Q 107.99 282.56 134.51 281.10
  Q 150.55 283.19 167.51 280.58
  Q 169.49 280.27 172.74 278.71
  C 176.51 276.90 179.95 274.18 183.33 271.76
  A 0.51 0.51 0.0 0 1 184.14 272.18
  L 184.15 315.29
  Z"
/>
<path fill="#0c8acd" d="
  M 363.65 281.10
  Q 381.19 282.66 398.16 282.06
  A 0.81 0.80 -80.4 0 1 398.94 283.16
  Q 396.77 288.65 393.11 293.23
  Q 389.96 297.18 387.37 300.66
  Q 383.57 305.79 378.10 310.55
  Q 377.68 310.92 377.66 311.48
  L 377.65 311.80
  Q 377.63 312.31 377.13 312.39
  Q 376.48 312.49 376.24 313.20
  Q 375.95 314.05 375.95 314.14
  Q 375.93 314.89 377.83 315.45
  L 315.35 315.30
  L 315.46 272.27
  A 0.52 0.52 0.0 0 1 316.30 271.86
  Q 319.16 274.02 322.41 276.13
  Q 330.97 281.68 340.49 282.09
  Q 352.25 282.61 363.65 281.10
  Z"
/>
<path fill="#a5e6ff" d="
  M 205.98 282.44
  Q 247.71 282.10 289.25 282.43
  Q 290.31 282.44 293.55 283.47
  L 293.62 308.54
  Q 293.62 309.72 293.00 309.71
  Q 249.60 309.33 205.95 309.60
  L 205.98 282.44
  Z"
/>
<path fill="#1da1ea" d="
  M 474.96 310.96
  Q 474.18 313.88 473.42 316.70
  C 471.99 321.97 469.66 327.03 467.61 332.09
  Q 465.97 336.15 461.22 342.22
  Q 456.14 344.01 451.76 346.01
  Q 448.93 347.30 440.50 347.36
  Q 414.80 347.54 389.01 347.44
  L 383.69 347.59
  Q 384.42 343.61 386.55 340.53
  Q 388.88 337.18 388.97 337.02
  Q 390.56 334.49 392.31 332.28
  Q 393.66 330.59 394.53 328.76
  Q 395.59 326.56 396.99 324.56
  Q 398.17 322.87 399.17 321.21
  Q 399.46 320.73 399.32 320.20
  L 398.58 317.33
  Q 398.55 317.21 398.63 317.11
  Q 398.77 316.94 398.94 316.92
  Q 399.98 316.79 399.03 316.31
  Q 397.32 315.47 395.26 315.53
  L 429.97 315.10
  C 434.78 315.28 440.78 314.23 444.17 310.75
  Q 445.43 309.46 446.57 306.94
  Q 448.37 302.98 449.91 299.17
  A 1.12 1.12 0.0 0 1 451.40 298.56
  Q 460.84 302.73 468.42 307.86
  Q 468.70 308.04 468.84 307.74
  Q 468.91 307.57 468.85 307.43
  Q 468.72 307.13 469.04 307.23
  Q 470.60 307.74 470.35 309.16
  Q 470.27 309.62 470.61 309.93
  Q 471.52 310.76 472.39 309.90
  Q 472.88 309.42 473.06 310.08
  Q 473.33 311.02 474.96 310.96
  Z"
/>
<path fill="#1b79da" d="
  M 51.77 301.70
  L 51.96 302.04
  C 53.02 308.26 57.62 312.74 63.44 314.73
  Q 65.96 315.59 70.66 315.62
  Q 82.22 315.70 93.80 315.70
  L 93.88 318.29
  A 2.68 2.66 -78.6 0 0 95.43 320.64
  Q 98.21 321.93 100.18 323.49
  Q 103.77 326.36 107.18 329.51
  A 0.61 0.60 -29.8 0 0 107.72 329.65
  Q 108.00 329.59 108.22 329.75
  Q 111.35 332.06 114.29 334.96
  C 115.29 335.94 116.41 336.31 117.60 336.92
  Q 118.67 337.46 119.82 338.72
  Q 121.84 340.93 124.82 342.00
  Q 124.89 342.02 124.88 341.96
  Q 124.86 341.91 124.89 341.87
  Q 124.99 341.67 125.18 341.79
  Q 127.07 342.97 129.27 343.69
  C 130.71 344.17 131.43 345.15 132.36 346.17
  A 0.66 0.66 0.0 0 1 131.90 347.28
  L 128.71 347.40
  Q 103.76 347.53 78.80 347.53
  Q 78.71 347.53 70.21 347.68
  C 62.66 347.81 53.34 347.81 46.53 344.68
  Q 41.66 342.44 39.15 341.53
  Q 35.00 336.19 32.64 331.11
  Q 28.38 321.95 25.59 310.74
  Q 26.58 310.94 26.92 310.22
  Q 27.14 309.74 27.66 309.86
  Q 27.94 309.93 28.03 310.23
  A 0.54 0.54 0.0 0 0 28.51 310.63
  Q 29.36 310.69 29.84 309.98
  Q 30.17 309.47 30.71 309.21
  C 32.32 308.41 33.56 307.24 35.23 306.57
  Q 37.71 305.56 39.78 303.98
  Q 40.18 303.68 40.67 303.60
  C 42.10 303.39 42.75 302.30 44.01 301.95
  Q 46.27 301.34 48.72 302.30
  Q 49.05 302.43 49.28 302.16
  Q 49.82 301.54 50.61 301.12
  Q 51.11 300.85 51.02 301.38
  Q 50.99 301.51 51.10 301.61
  Q 51.24 301.73 51.39 301.82
  Q 51.56 301.90 51.77 301.70
  Z"
/>
<path fill="#59d8ff" d="
  M 293.62 308.54
  L 293.68 337.52
  L 205.89 337.51
  L 205.95 309.60
  Q 249.60 309.33 293.00 309.71
  Q 293.62 309.72 293.62 308.54
  Z"
/>
<path fill="#1b79da" d="
  M 377.83 315.45
  L 395.26 315.53
  Q 397.32 315.47 399.03 316.31
  Q 399.98 316.79 398.94 316.92
  Q 398.77 316.94 398.63 317.11
  Q 398.55 317.21 398.58 317.33
  L 399.32 320.20
  Q 399.46 320.73 399.17 321.21
  Q 398.17 322.87 396.99 324.56
  Q 395.59 326.56 394.53 328.76
  Q 393.66 330.59 392.31 332.28
  Q 390.56 334.49 388.97 337.02
  Q 388.88 337.18 386.55 340.53
  Q 384.42 343.61 383.69 347.59
  L 316.15 347.38
  Q 315.73 347.38 315.60 346.98
  L 315.42 346.46
  L 315.35 315.30
  L 377.83 315.45
  Z"
/>
<path fill="#1d65c8" d="
  M 184.15 315.29
  L 184.18 347.23
  L 128.71 347.40
  L 131.90 347.28
  A 0.66 0.66 0.0 0 0 132.36 346.17
  C 131.43 345.15 130.71 344.17 129.27 343.69
  Q 127.07 342.97 125.18 341.79
  Q 124.99 341.67 124.89 341.87
  Q 124.86 341.91 124.88 341.96
  Q 124.89 342.02 124.82 342.00
  Q 121.84 340.93 119.82 338.72
  Q 118.67 337.46 117.60 336.92
  C 116.41 336.31 115.29 335.94 114.29 334.96
  Q 111.35 332.06 108.22 329.75
  Q 108.00 329.59 107.72 329.65
  A 0.61 0.60 -29.8 0 1 107.18 329.51
  Q 103.77 326.36 100.18 323.49
  Q 98.21 321.93 95.43 320.64
  A 2.68 2.66 -78.6 0 1 93.88 318.29
  L 93.80 315.70
  L 184.15 315.29
  Z"
/>
<path fill="#22b5fe" d="
  M 293.68 337.52
  L 293.72 364.71
  L 205.81 364.62
  L 205.89 337.51
  L 293.68 337.52
  Z"
/>
<path fill="#2252bd" d="
  M 39.15 341.53
  Q 41.66 342.44 46.53 344.68
  C 53.34 347.81 62.66 347.81 70.21 347.68
  Q 78.71 347.53 78.80 347.53
  Q 103.76 347.53 128.71 347.40
  L 184.18 347.23
  L 184.27 378.25
  A 0.83 0.82 -90.0 0 1 183.45 379.08
  Q 144.65 379.38 102.49 379.21
  Q 90.27 379.17 79.09 374.35
  Q 64.73 368.17 55.08 359.92
  Q 47.10 353.09 39.15 341.53
  Z"
/>
<path fill="#1d65c8" d="
  M 461.22 342.22
  Q 456.44 348.99 450.87 354.87
  Q 444.88 361.18 438.93 364.99
  C 429.21 371.20 419.54 376.25 408.98 378.20
  C 400.29 379.81 390.57 379.35 381.71 379.22
  Q 381.57 379.10 381.51 378.99
  Q 381.33 378.68 381.69 378.65
  Q 381.86 378.63 381.99 378.53
  Q 382.20 378.37 381.94 378.37
  L 381.55 378.37
  Q 381.14 378.37 381.20 377.97
  Q 381.50 376.17 382.31 374.65
  Q 384.12 371.26 384.89 367.27
  Q 385.42 364.49 386.55 361.82
  Q 387.68 359.15 388.91 356.56
  Q 389.03 356.30 389.27 356.13
  Q 389.65 355.84 390.05 355.55
  A 1.49 1.46 78.6 0 0 390.63 354.66
  Q 391.06 352.69 391.94 351.00
  Q 392.07 350.75 392.14 350.47
  Q 392.24 350.03 391.80 350.09
  A 0.44 0.43 -6.8 0 1 391.30 349.70
  Q 391.28 349.35 391.56 349.13
  Q 392.17 348.64 391.39 348.54
  Q 389.96 348.34 389.01 347.44
  Q 414.80 347.54 440.50 347.36
  Q 448.93 347.30 451.76 346.01
  Q 456.14 344.01 461.22 342.22
  Z"
/>
<path fill="#2252bd" d="
  M 315.42 346.46
  L 315.60 346.98
  Q 315.73 347.38 316.15 347.38
  L 383.69 347.59
  L 389.01 347.44
  Q 389.96 348.34 391.39 348.54
  Q 392.17 348.64 391.56 349.13
  Q 391.28 349.35 391.30 349.70
  A 0.44 0.43 -6.8 0 0 391.80 350.09
  Q 392.24 350.03 392.14 350.47
  Q 392.07 350.75 391.94 351.00
  Q 391.06 352.69 390.63 354.66
  A 1.49 1.46 78.6 0 1 390.05 355.55
  Q 389.65 355.84 389.27 356.13
  Q 389.03 356.30 388.91 356.56
  Q 387.68 359.15 386.55 361.82
  Q 385.42 364.49 384.89 367.27
  Q 384.12 371.26 382.31 374.65
  Q 381.50 376.17 381.20 377.97
  Q 381.14 378.37 381.55 378.37
  L 381.94 378.37
  Q 382.20 378.37 381.99 378.53
  Q 381.86 378.63 381.69 378.65
  Q 381.33 378.68 381.51 378.99
  Q 381.57 379.10 381.71 379.22
  L 316.54 379.23
  Q 315.25 379.23 315.25 377.94
  L 315.42 346.46
  Z"
/>
<path fill="#1e88f3" d="
  M 293.72 364.71
  L 293.65 393.48
  L 205.84 393.46
  L 205.81 364.62
  L 293.72 364.71
  Z"
/>
<path fill="#2252bd" d="
  M 293.65 393.48
  Q 294.41 400.11 293.48 404.02
  Q 290.20 417.81 275.75 417.81
  Q 252.59 417.82 224.29 417.81
  Q 219.14 417.81 215.60 416.25
  Q 209.41 413.53 207.00 406.76
  Q 204.78 400.53 205.84 393.46
  L 293.65 393.48
  Z"
/>
</svg>
